<svg width="46" height="46" viewBox="0 0 46 46" fill="none" xmlns="http://www.w3.org/2000/svg">
<path d="M23 5.75L37.9385 14.375V29.4113C37.9385 30.0841 37.7614 30.7451 37.4249 31.3279C37.0885 31.9106 36.6046 32.3945 36.0219 32.7309L24.9167 39.1441C24.334 39.4805 23.6729 39.6577 23 39.6577C22.3271 39.6577 21.6661 39.4805 21.0834 39.1441L9.97819 32.7309C9.39546 32.3945 8.91156 31.9106 8.57512 31.3279C8.23867 30.7451 8.06154 30.0841 8.06152 29.4113V14.375L23 5.75Z" stroke="#F17E01" stroke-width="1.5" stroke-linecap="round" stroke-linejoin="round"/>
<path d="M23.0003 13.4165V22.9998M23.0003 22.9998L14.7012 27.7915M23.0003 22.9998L31.2995 27.7915" stroke="#F17E01" stroke-width="1.5" stroke-linecap="round" stroke-linejoin="round"/>
</svg>
