<svg width="46" height="46" viewBox="0 0 46 46" fill="none" xmlns="http://www.w3.org/2000/svg">
<path d="M12.5 24C12.8978 24 13.2794 23.842 13.5607 23.5607C13.842 23.2794 14 22.8978 14 22.5C14 22.1022 13.842 21.7206 13.5607 21.4393C13.2794 21.158 12.8978 21 12.5 21C12.1022 21 11.7206 21.158 11.4393 21.4393C11.158 21.7206 11 22.1022 11 22.5C11 22.8978 11.158 23.2794 11.4393 23.5607C11.7206 23.842 12.1022 24 12.5 24Z" stroke="#F17E01" stroke-width="1.5" stroke-linecap="round" stroke-linejoin="round"/>
<path d="M34.5 24C34.8978 24 35.2794 23.842 35.5607 23.5607C35.842 23.2794 36 22.8978 36 22.5C36 22.1022 35.842 21.7206 35.5607 21.4393C35.2794 21.158 34.8978 21 34.5 21C34.1022 21 33.7206 21.158 33.4393 21.4393C33.158 21.7206 33 22.1022 33 22.5C33 22.8978 33.158 23.2794 33.4393 23.5607C33.7206 23.842 34.1022 24 34.5 24Z" stroke="#F17E01" stroke-width="1.5" stroke-linecap="round" stroke-linejoin="round"/>
<path d="M23.5 22C26.0196 22 28.4359 22.0527 30.2175 22.1464C31.9991 22.2402 33 22.3674 33 22.5C33 22.6326 31.9991 22.7598 30.2175 22.8536C28.4359 22.9473 26.0196 23 23.5 23C20.9804 23 18.5641 22.9473 16.7825 22.8536C15.0009 22.7598 14 22.6326 14 22.5C14 22.3674 15.0009 22.2402 16.7825 22.1464C18.5641 22.0527 20.9804 22 23.5 22Z" stroke="#F17E01" stroke-width="1.5" stroke-linecap="round" stroke-linejoin="round"/>
<path d="M23 41C27.7739 41 32.3523 39.1036 35.7279 35.7279C39.1036 32.3523 41 27.7739 41 23C41 18.2261 39.1036 13.6477 35.7279 10.2721C32.3523 6.89642 27.7739 5 23 5C18.2261 5 13.6477 6.89642 10.2721 10.2721C6.89642 13.6477 5 18.2261 5 23C5 27.7739 6.89642 32.3523 10.2721 35.7279C13.6477 39.1036 18.2261 41 23 41Z" stroke="#F17E01" stroke-width="1.5" stroke-linecap="round" stroke-linejoin="round"/>
</svg>
