<svg width="14" height="14" viewBox="0 0 14 14" fill="none" xmlns="http://www.w3.org/2000/svg">
<path d="M0.635667 11.9491C0.245142 12.3397 0.245142 12.9728 0.635667 13.3634C1.02619 13.7539 1.65936 13.7539 2.04988 13.3634L0.635667 11.9491ZM13.6565 1.34254C13.6565 0.790257 13.2088 0.342541 12.6565 0.342541L3.65648 0.342542C3.1042 0.342542 2.65648 0.790257 2.65648 1.34254C2.65648 1.89483 3.1042 2.34254 3.65648 2.34254L11.6565 2.34254L11.6565 10.3425C11.6565 10.8948 12.1042 11.3425 12.6565 11.3425C13.2088 11.3425 13.6565 10.8948 13.6565 10.3425L13.6565 1.34254ZM2.04988 13.3634L13.3636 2.04965L11.9494 0.635435L0.635667 11.9491L2.04988 13.3634Z" fill="white"/>
</svg>
