<svg width="46" height="46" viewBox="0 0 46 46" fill="none" xmlns="http://www.w3.org/2000/svg">
<path d="M23.084 34.584C26.134 34.584 29.059 33.3724 31.2157 31.2157C33.3724 29.059 34.584 26.134 34.584 23.084C34.584 20.034 33.3724 17.1089 31.2157 14.9523C29.059 12.7956 26.134 11.584 23.084 11.584C20.034 11.584 17.1089 12.7956 14.9523 14.9523C12.7956 17.1089 11.584 20.034 11.584 23.084C11.584 26.134 12.7956 29.059 14.9523 31.2157C17.1089 33.3724 20.034 34.584 23.084 34.584Z" stroke="#F17E01" stroke-width="1.5" stroke-linecap="round" stroke-linejoin="round"/>
<path d="M23 41C27.7739 41 32.3523 39.1036 35.7279 35.7279C39.1036 32.3523 41 27.7739 41 23C41 18.2261 39.1036 13.6477 35.7279 10.2721C32.3523 6.89642 27.7739 5 23 5C18.2261 5 13.6477 6.89642 10.2721 10.2721C6.89642 13.6477 5 18.2261 5 23C5 27.7739 6.89642 32.3523 10.2721 35.7279C13.6477 39.1036 18.2261 41 23 41Z" stroke="#F17E01" stroke-width="1.5" stroke-linecap="round" stroke-linejoin="round"/>
</svg>
