<svg width="32" height="32" viewBox="0 0 32 32" fill="none" xmlns="http://www.w3.org/2000/svg">
<path d="M16 18.5551L7.05703 27.4981C6.72243 27.8327 6.29658 28 5.77947 28C5.26236 28 4.8365 27.8327 4.5019 27.4981C4.1673 27.1635 4 26.7376 4 26.2205C4 25.7034 4.1673 25.2776 4.5019 24.943L13.4449 16L4.5019 7.05703C4.1673 6.72243 4 6.29658 4 5.77947C4 5.26236 4.1673 4.8365 4.5019 4.5019C4.8365 4.1673 5.26236 4 5.77947 4C6.29658 4 6.72243 4.1673 7.05703 4.5019L16 13.4449L24.943 4.5019C25.2776 4.1673 25.7034 4 26.2205 4C26.7376 4 27.1635 4.1673 27.4981 4.5019C27.8327 4.8365 28 5.26236 28 5.77947C28 6.29658 27.8327 6.72243 27.4981 7.05703L18.5551 16L27.4981 24.943C27.8327 25.2776 28 25.7034 28 26.2205C28 26.7376 27.8327 27.1635 27.4981 27.4981C27.1635 27.8327 26.7376 28 26.2205 28C25.7034 28 25.2776 27.8327 24.943 27.4981L16 18.5551Z" fill="white"/>
</svg>
