<svg width="46" height="46" viewBox="0 0 46 46" fill="none" xmlns="http://www.w3.org/2000/svg">
<path d="M15.6322 4.27494L28.8225 17.358C29.3654 17.8965 29.6368 18.5462 29.6368 19.3073C29.6368 20.0683 29.3654 20.7175 28.8225 21.2548L22.1857 27.9034C21.6644 28.4205 21.0206 28.6791 20.2545 28.6791C19.4872 28.6791 18.8429 28.4205 18.3216 27.9034L11.6848 21.2548C11.1419 20.7152 10.8705 20.0655 10.8705 19.3056C10.8705 18.5445 11.1425 17.8948 11.6865 17.3563L19.073 10.0838L14.3861 5.43503C14.2206 5.27091 14.1396 5.08262 14.143 4.87016C14.1453 4.65882 14.2297 4.45985 14.3963 4.27325C14.5618 4.09339 14.7618 4.00234 14.9964 4.00009C15.2321 3.99672 15.4441 4.08946 15.6322 4.27494ZM20.2868 11.2878L12.8238 18.626C12.7139 18.734 12.643 18.8475 12.6113 18.9666C12.5773 19.0858 12.5603 19.2095 12.5603 19.3376H27.9453C27.9453 19.2095 27.9294 19.0858 27.8977 18.9666C27.866 18.8475 27.7951 18.734 27.6852 18.626L20.2868 11.2878ZM34.1809 30.3636C33.4635 30.3636 32.8594 30.1202 32.3687 29.6334C31.8768 29.1456 31.6309 28.5459 31.6309 27.8343C31.6309 27.3307 31.7646 26.8338 32.0321 26.3437C32.2996 25.8536 32.5801 25.3888 32.8736 24.9492C33.0844 24.6547 33.2986 24.3681 33.5162 24.0893C33.7349 23.8105 33.9565 23.5238 34.1809 23.2293C34.4053 23.5238 34.6263 23.8105 34.8439 24.0893C35.0626 24.3681 35.278 24.6547 35.4899 24.9492C35.7834 25.3876 36.0634 25.8525 36.3297 26.3437C36.5972 26.8338 36.7309 27.3307 36.7309 27.8343C36.7309 28.5459 36.485 29.1456 35.9931 29.6334C35.5024 30.1202 34.8983 30.3636 34.1809 30.3636ZM7.7 41C7.2444 41 6.84717 40.837 6.5083 40.511C6.16943 40.1873 6 39.7882 6 39.3138C6 38.8619 6.16943 38.4679 6.5083 38.1318C6.84717 37.7957 7.2444 37.6276 7.7 37.6276H38.3C38.7556 37.6276 39.1528 37.7906 39.4917 38.1166C39.8306 38.4415 40 38.8406 40 39.3138C40 39.7657 39.8306 40.1597 39.4917 40.4958C39.1528 40.8319 38.7556 41 38.3 41H7.7Z" fill="#F17E01"/>
</svg>
