<svg width="46" height="46" viewBox="0 0 46 46" fill="none" xmlns="http://www.w3.org/2000/svg">
<path d="M30.6667 3.83398H7.66667C7.15834 3.83398 6.67082 4.03592 6.31138 4.39536C5.95193 4.75481 5.75 5.24232 5.75 5.75065V40.2506C5.75 40.759 5.95193 41.2465 6.31138 41.6059C6.67082 41.9654 7.15834 42.1673 7.66667 42.1673H23.4888C21.7969 39.7398 20.955 36.8211 21.094 33.8655C21.2331 30.9099 22.3452 28.0831 24.2575 25.8251C26.1697 23.5672 28.7748 22.0047 31.6672 21.3808C34.5596 20.757 37.577 21.1068 40.25 22.3758V13.4173L30.6667 3.83398ZM26.4232 29.3774C26.4979 27.984 27.5732 26.8493 28.9608 26.7017L30.6283 26.5254C30.827 26.5039 31.014 26.4208 31.1631 26.2877L32.4108 25.1665C32.913 24.714 33.5603 24.4557 34.236 24.4381C34.9118 24.4205 35.5716 24.6448 36.0966 25.0707L37.4037 26.1248C37.5571 26.2494 37.7488 26.3222 37.9481 26.3337L39.6233 26.4238C41.0167 26.4986 42.1513 27.5738 42.2989 28.9615L42.4753 30.629C42.4968 30.8277 42.5799 31.0146 42.7129 31.1637L43.8342 32.4115C44.7676 33.4503 44.8078 35.0124 43.93 36.0972L42.8758 37.4044C42.7514 37.5597 42.6783 37.75 42.6669 37.9487L42.5768 39.6239C42.5421 40.2991 42.2674 40.9398 41.8021 41.4304C41.3368 41.9209 40.7116 42.2292 40.0392 42.2996L38.3717 42.4759C38.173 42.4974 37.986 42.5805 37.8369 42.7136L36.5892 43.8348C36.087 44.2873 35.4397 44.5456 34.764 44.5632C34.0882 44.5808 33.4284 44.3565 32.9034 43.9306L31.5963 42.8765C31.4409 42.752 31.2507 42.679 31.0519 42.6676L29.3768 42.5775C28.7015 42.5428 28.0609 42.268 27.5703 41.8028C27.0797 41.3375 26.7715 40.7123 26.7011 40.0398L26.5247 38.3723C26.5032 38.1736 26.4201 37.9867 26.2871 37.8376L25.1658 36.5898C24.7133 36.0876 24.455 35.4404 24.4374 34.7646C24.4199 34.0889 24.6442 33.4291 25.07 32.9041L26.1242 31.5969C26.2487 31.4416 26.3217 31.2513 26.3331 31.0526L26.4232 29.3774ZM40.3075 32.6415L38.2758 30.6098L33.5417 35.344L30.7242 32.5265L28.6925 34.5582L32.5258 38.3915L33.5417 39.4073L34.5575 38.3915L40.3075 32.6415Z" fill="#F17E01"/>
</svg>
