<svg width="46" height="46" viewBox="0 0 46 46" fill="none" xmlns="http://www.w3.org/2000/svg">
<path d="M23.959 11.5L18.209 20.125H22.0423V25.875L27.7923 17.25H23.959V11.5Z" fill="#F17E01"/>
<path fill-rule="evenodd" clip-rule="evenodd" d="M36.3307 18.4696C36.0398 20.9377 35.0477 23.2706 33.472 25.1924C32.5501 26.3193 30.207 29.5355 29.7087 31.6247H16.292C15.7937 29.5336 13.4477 26.3165 12.5257 25.1895C10.9508 23.2669 9.95972 20.9332 9.66991 18.4648C9.38429 16.0017 9.81415 13.5084 10.9081 11.2831C12.0117 9.0404 13.7282 7.15636 15.8588 5.84935C18.0071 4.52829 20.4803 3.83021 23.0022 3.83302C25.5303 3.83302 28.0067 4.5326 30.1457 5.85222C32.2757 7.15977 33.9916 9.04413 35.0945 11.2869C36.188 13.5127 36.6171 16.0064 36.3307 18.4696ZM28.3507 29.708H17.649C17.2407 28.766 16.6955 27.822 16.1875 27.0199C15.5189 25.9659 14.792 24.9501 14.0102 23.9772C12.6669 22.338 11.8215 20.3482 11.5741 18.2435C11.3307 16.1458 11.6967 14.0225 12.6283 12.1274C13.5727 10.2095 15.0414 8.59853 16.8641 7.48139C18.7101 6.34647 20.8353 5.74693 23.0022 5.74968C25.1777 5.74968 27.3052 6.35247 29.1404 7.48427C30.9624 8.60169 32.4304 10.2126 33.3743 12.1303C34.3054 14.0259 34.6707 16.1495 34.4265 18.2473C34.1782 20.3516 33.3322 22.3407 31.9885 23.9791C31.2054 24.9508 30.4788 25.9667 29.8122 27.0218C29.3042 27.8239 28.759 28.766 28.3507 29.708Z" fill="#F17E01"/>
<path d="M16.292 34.4993C16.292 34.2452 16.393 34.0014 16.5727 33.8217C16.7524 33.642 16.9962 33.541 17.2503 33.541H28.7503C29.0045 33.541 29.2482 33.642 29.428 33.8217C29.6077 34.0014 29.7087 34.2452 29.7087 34.4993C29.7087 34.7535 29.6077 34.9973 29.428 35.177C29.2482 35.3567 29.0045 35.4577 28.7503 35.4577H17.2503C16.9962 35.4577 16.7524 35.3567 16.5727 35.177C16.393 34.9973 16.292 34.7535 16.292 34.4993Z" fill="#F17E01"/>
<path fill-rule="evenodd" clip-rule="evenodd" d="M16.292 37.375H29.7087V40.25C29.7087 40.7583 29.5067 41.2458 29.1473 41.6053C28.7878 41.9647 28.3003 42.1667 27.792 42.1667H18.2087C17.7003 42.1667 17.2128 41.9647 16.8534 41.6053C16.4939 41.2458 16.292 40.7583 16.292 40.25V37.375ZM18.2087 39.2917H27.792V40.25H18.2087V39.2917Z" fill="#F17E01"/>
</svg>
