<svg width="46" height="46" viewBox="0 0 46 46" fill="none" xmlns="http://www.w3.org/2000/svg">
<path d="M28.9611 30.0617C28.9279 30.0154 28.884 29.9778 28.8332 29.952C28.7824 29.9262 28.7261 29.913 28.6691 29.9135H26.6836C26.3916 29.9135 26.2209 30.2459 26.3916 30.484L29.7068 35.0705C29.8506 35.2682 30.1426 35.2682 30.2863 35.0705L35.4164 27.9729C35.5871 27.7348 35.4164 27.4023 35.1244 27.4023H33.1344C33.0176 27.4023 32.9098 27.4562 32.8424 27.5506L29.9898 31.4947L28.9611 30.0617ZM30.9062 13.7461V11.5898C30.9062 11.3922 30.7445 11.2305 30.5469 11.2305H13.2969C13.0992 11.2305 12.9375 11.3922 12.9375 11.5898V13.7461C12.9375 13.9438 13.0992 14.1055 13.2969 14.1055H30.5469C30.7445 14.1055 30.9062 13.9438 30.9062 13.7461ZM13.2969 17.6992C13.0992 17.6992 12.9375 17.8609 12.9375 18.0586V20.2148C12.9375 20.4125 13.0992 20.5742 13.2969 20.5742H21.5625C21.7602 20.5742 21.9219 20.4125 21.9219 20.2148V18.0586C21.9219 17.8609 21.7602 17.6992 21.5625 17.6992H13.2969ZM21.5625 38.2734H9.34375V6.64844H34.5V19.9453C34.5 20.143 34.6617 20.3047 34.8594 20.3047H37.375C37.5727 20.3047 37.7344 20.143 37.7344 19.9453V4.85156C37.7344 4.05645 37.092 3.41406 36.2969 3.41406H7.54688C6.75176 3.41406 6.10938 4.05645 6.10938 4.85156V40.0703C6.10938 40.8654 6.75176 41.5078 7.54688 41.5078H21.5625C21.7602 41.5078 21.9219 41.3461 21.9219 41.1484V38.6328C21.9219 38.4352 21.7602 38.2734 21.5625 38.2734ZM39.648 23.8625L31.023 20.8662C30.9826 20.8527 30.9467 20.8482 30.9062 20.8482C30.8658 20.8482 30.8254 20.8527 30.7895 20.8662L22.1645 23.8625C22.094 23.8864 22.0327 23.9318 21.9893 23.9921C21.9458 24.0525 21.9222 24.125 21.9219 24.1994V35.4793C21.9219 35.5916 21.9713 35.6949 22.0611 35.7623L30.6861 42.5096C30.749 42.559 30.8299 42.5859 30.9062 42.5859C30.9826 42.5859 31.0635 42.559 31.1264 42.5096L39.7514 35.7623C39.8367 35.6949 39.8906 35.5916 39.8906 35.4793V24.1994C39.8906 24.0467 39.7918 23.9119 39.648 23.8625ZM37.1055 34.3068L30.9062 39.1539L24.707 34.3068V25.9199L30.9062 23.7637L37.1055 25.9199V34.3068Z" fill="#F17E01"/>
</svg>
