<svg width="46" height="46" viewBox="0 0 46 46" fill="none" xmlns="http://www.w3.org/2000/svg">
<path d="M37.375 14.3748H33.4046C34.3337 12.9918 34.6915 11.3029 34.4031 9.66194C34.1148 8.02097 33.2027 6.55523 31.8578 5.57175C30.5129 4.58827 28.8396 4.16335 27.1885 4.386C25.5373 4.60864 24.0364 5.46158 23 6.76615C21.9636 5.46158 20.4627 4.60864 18.8115 4.386C17.1604 4.16335 15.4871 4.58827 14.1422 5.57175C12.7973 6.55523 11.8852 8.02097 11.5969 9.66194C11.3085 11.3029 11.6663 12.9918 12.5954 14.3748H8.625C7.86285 14.376 7.13225 14.6792 6.59333 15.2182C6.05441 15.7571 5.75114 16.4877 5.75 17.2498V22.9998C5.75114 23.762 6.05441 24.4926 6.59333 25.0315C7.13225 25.5704 7.86285 25.8737 8.625 25.8748V40.2498C8.62614 41.012 8.92941 41.7426 9.46833 42.2815C10.0072 42.8204 10.7379 43.1237 11.5 43.1248H34.5C35.2621 43.1237 35.9928 42.8204 36.5317 42.2815C37.0706 41.7426 37.3739 41.012 37.375 40.2498V25.8748C38.1371 25.8737 38.8678 25.5704 39.4067 25.0315C39.9456 24.4926 40.2489 23.762 40.25 22.9998V17.2498C40.2489 16.4877 39.9456 15.7571 39.4067 15.2182C38.8678 14.6792 38.1371 14.376 37.375 14.3748ZM24.4375 10.7811C24.4375 10.0703 24.6483 9.3755 25.0432 8.78451C25.438 8.19352 25.9993 7.7329 26.656 7.46089C27.3127 7.18889 28.0352 7.11772 28.7324 7.25639C29.4295 7.39505 30.0698 7.73733 30.5724 8.23992C31.075 8.74252 31.4173 9.38286 31.5559 10.08C31.6946 10.7771 31.6234 11.4997 31.3514 12.1564C31.0794 12.813 30.6188 13.3743 30.0278 13.7692C29.4368 14.1641 28.742 14.3748 28.0312 14.3748H24.4375V10.7811ZM17.9688 7.18734C18.9215 7.18848 19.8349 7.56747 20.5087 8.24118C21.1824 8.91489 21.5614 9.82832 21.5625 10.7811V14.3748H17.9688C17.0156 14.3748 16.1015 13.9962 15.4276 13.3223C14.7536 12.6483 14.375 11.7342 14.375 10.7811C14.375 9.82796 14.7536 8.91388 15.4276 8.23992C16.1015 7.56596 17.0156 7.18734 17.9688 7.18734ZM8.625 17.2498H21.5625V22.9998H8.625V17.2498ZM11.5 25.8748H21.5625V40.2498H11.5V25.8748ZM34.5014 40.2498H24.4375V25.8748H34.5L34.5014 40.2498ZM24.4375 22.9998V17.2498H37.375L37.3764 22.9998H24.4375Z" fill="#F17E01"/>
</svg>
