<svg width="46" height="46" viewBox="0 0 46 46" fill="none" xmlns="http://www.w3.org/2000/svg">
<path d="M22.9998 2.875H29.7086C30.2376 2.875 30.666 3.30338 30.666 3.83381V7.66619C30.666 7.92023 30.5652 8.16389 30.3857 8.34366C30.2062 8.52343 29.9627 8.62462 29.7086 8.625H24.4373V10.1416C27.6001 10.4952 30.5216 12.0022 32.6432 14.3743C34.7648 16.7465 35.9376 19.8175 35.9373 23H38.8123C39.956 23 41.0529 23.4544 41.8617 24.2631C42.6704 25.0719 43.1248 26.1688 43.1248 27.3125V40.25C43.1248 40.6312 42.9733 40.9969 42.7038 41.2665C42.4342 41.536 42.0685 41.6875 41.6873 41.6875H27.3123V35.9375C27.3123 35.5563 27.1608 35.1906 26.8913 34.921C26.6217 34.6514 26.256 34.5 25.8748 34.5H20.6279C20.7707 33.8014 20.8426 33.0826 20.8435 32.3438C20.8472 29.8044 19.9508 27.346 18.3135 25.4049C18.5542 25.1402 18.6874 24.7953 18.6873 24.4375V20.125C18.6873 19.7438 18.5358 19.3781 18.2663 19.1085C17.9967 18.839 17.631 18.6875 17.2498 18.6875C16.8685 18.6875 16.5029 18.839 16.2333 19.1085C15.9637 19.3781 15.8123 19.7438 15.8123 20.125V23.2228C14.1148 22.1492 12.1499 21.5739 10.1414 21.5625C10.4683 18.646 11.7766 15.9272 13.8518 13.852C15.927 11.7768 18.6458 10.4685 21.5623 10.1416V4.3125C21.5623 3.93125 21.7137 3.56562 21.9833 3.29603C22.2529 3.02645 22.6185 2.875 22.9998 2.875ZM30.1873 20.125C30.1873 19.7438 30.0358 19.3781 29.7663 19.1085C29.4967 18.839 29.131 18.6875 28.7498 18.6875C28.3685 18.6875 28.0029 18.839 27.7333 19.1085C27.4637 19.3781 27.3123 19.7438 27.3123 20.125V24.4375C27.3123 24.8187 27.4637 25.1844 27.7333 25.454C28.0029 25.7236 28.3685 25.875 28.7498 25.875C29.131 25.875 29.4967 25.7236 29.7663 25.454C30.0358 25.1844 30.1873 24.8187 30.1873 24.4375V20.125ZM24.4373 24.4375V20.125C24.4373 19.7438 24.2858 19.3781 24.0163 19.1085C23.7467 18.839 23.381 18.6875 22.9998 18.6875C22.6185 18.6875 22.2529 18.839 21.9833 19.1085C21.7137 19.3781 21.5623 19.7438 21.5623 20.125V24.4375C21.5623 24.8187 21.7137 25.1844 21.9833 25.454C22.2529 25.7236 22.6185 25.875 22.9998 25.875C23.381 25.875 23.7467 25.7236 24.0163 25.454C24.2858 25.1844 24.4373 24.8187 24.4373 24.4375ZM35.9373 30.1875C35.9373 29.8063 35.7858 29.4406 35.5163 29.171C35.2467 28.9014 34.881 28.75 34.4998 28.75C34.1185 28.75 33.7529 28.9014 33.4833 29.171C33.2137 29.4406 33.0623 29.8063 33.0623 30.1875V34.5C33.0623 34.8812 33.2137 35.2469 33.4833 35.5165C33.7529 35.786 34.1185 35.9375 34.4998 35.9375C34.881 35.9375 35.2467 35.786 35.5163 35.5165C35.7858 35.2469 35.9373 34.8812 35.9373 34.5V30.1875ZM10.0623 40.9688C11.9253 40.9688 13.6503 40.3794 15.059 39.3731L19.8272 44.1413C20.0983 44.4032 20.4615 44.5481 20.8384 44.5448C21.2153 44.5415 21.5758 44.3903 21.8423 44.1238C22.1089 43.8573 22.2601 43.4967 22.2633 43.1198C22.2666 42.7429 22.1217 42.3798 21.8599 42.1087L17.0931 37.3419C18.2136 35.7662 18.7721 33.8597 18.679 31.9284C18.5859 29.9972 17.8465 28.1532 16.5797 26.6926C15.3128 25.2319 13.5919 24.2393 11.6933 23.874C9.79458 23.5088 7.82824 23.7921 6.10989 24.6785C4.39155 25.5649 3.02088 27.003 2.21791 28.7619C1.41495 30.5207 1.22626 32.4984 1.68215 34.3774C2.13803 36.2564 3.21205 37.9277 4.73178 39.123C6.2515 40.3183 8.1288 40.9684 10.0623 40.9688ZM10.0623 38.0938C8.5373 38.0938 7.07476 37.4879 5.99643 36.4096C4.9181 35.3313 4.31229 33.8687 4.31229 32.3438C4.31229 30.8188 4.9181 29.3562 5.99643 28.2779C7.07476 27.1996 8.5373 26.5938 10.0623 26.5938C11.5873 26.5938 13.0498 27.1996 14.1282 28.2779C15.2065 29.3562 15.8123 30.8188 15.8123 32.3438C15.8123 33.8687 15.2065 35.3313 14.1282 36.4096C13.0498 37.4879 11.5873 38.0938 10.0623 38.0938Z" fill="#F17E01"/>
</svg>
