<svg width="71" height="71" viewBox="0 0 71 71" fill="none" xmlns="http://www.w3.org/2000/svg">
<path fill-rule="evenodd" clip-rule="evenodd" d="M58.9359 14.7502C62.3942 18.5591 62.9947 23.9092 61.1887 28.502C58.1016 36.3564 51.154 43.4712 44.5628 50.2221C41.3382 53.5221 38.2024 56.7363 35.6435 59.9062C35.0518 59.3293 34.4419 58.7377 33.8137 58.1312C25.3987 49.9662 14.1053 39.01 9.88081 28.5005C9.21032 26.8299 8.88959 25.0395 8.93844 23.24C8.98729 21.4405 9.40468 19.6702 10.1648 18.0384C10.9295 16.4039 12.0186 14.942 13.3657 13.7414C18.7395 8.94299 27.1516 9.68997 32.265 14.762L35.642 18.1109L39.5544 14.2325C40.8384 12.9572 42.3689 11.9572 44.0525 11.2934C45.7392 10.6272 47.5431 10.3087 49.3559 10.3569C51.1687 10.4052 52.9531 10.8194 54.6019 11.5744C56.2473 12.327 57.722 13.4071 58.9359 14.7487M28.0583 36.6848L39.8029 21.4996L37.5442 32.9632H44.2389C44.3773 32.963 44.5129 33.0017 44.6304 33.0748C44.7479 33.1479 44.8425 33.2524 44.9035 33.3766C44.9645 33.5008 44.9895 33.6396 44.9756 33.7773C44.9616 33.915 44.9093 34.046 44.8246 34.1554L33.0801 49.3405L35.3387 37.877H28.6426C28.5043 37.8769 28.3689 37.838 28.2516 37.7648C28.1343 37.6916 28.0399 37.587 27.9791 37.4629C27.9182 37.3387 27.8934 37.2 27.9074 37.0625C27.9214 36.9249 27.9737 36.7941 28.0583 36.6848Z" fill="white"/>
</svg>
