<svg width="46" height="46" viewBox="0 0 46 46" fill="none" xmlns="http://www.w3.org/2000/svg">
<path d="M23.0531 2.04688C20.3123 2.06215 17.7363 4.08561 15.8543 7.70434C15.8489 7.71422 15.8426 7.72231 15.8373 7.73246L4.09324 28.2842L4.07365 28.3179C1.88748 31.7569 1.4264 34.999 2.78215 37.3809C4.13699 39.7614 7.15098 40.9859 11.1825 40.7865H35.0023C39.0337 40.9858 42.0476 39.7614 43.4027 37.3807C44.7586 34.9984 44.2984 31.7549 42.1112 28.3149L42.0914 28.284L30.2209 7.66795C30.2141 7.65474 30.2052 7.64459 30.1984 7.63147C28.3555 4.03449 25.7914 2.03205 23.0531 2.04705L23.0531 2.04688ZM23.0279 3.73998C24.2473 3.72812 25.4098 4.32172 26.4559 5.3374C27.4943 6.34608 28.4677 7.78681 29.429 9.66697L39.9128 27.8714L39.9325 27.9021C41.0167 29.6032 41.7806 31.1385 42.1701 32.5347C42.562 33.9399 42.578 35.248 42.0353 36.3475C41.4927 37.447 40.4208 38.2208 39.0031 38.6553C37.5948 39.0871 35.8083 39.2288 33.576 39.1158H12.5693C10.5119 39.2197 8.79907 39.1014 7.41171 38.7115C6.01374 38.3186 4.9074 37.6201 4.28694 36.5637C3.66612 35.5071 3.59011 34.1918 3.94149 32.7536C4.29062 31.3247 5.0525 29.726 6.21274 27.9049L16.587 9.76203C16.5927 9.75125 16.5982 9.74208 16.6039 9.73112C17.5787 7.85429 18.5598 6.40717 19.6024 5.3878C20.6512 4.36242 21.8081 3.75148 23.0277 3.73962L23.0279 3.73998ZM23.0446 5.41898C22.3705 5.42545 21.6282 5.75661 20.7761 6.58964C19.9239 7.42286 19.007 8.74086 18.078 10.5344L18.0695 10.5513L18.0611 10.5653L11.7075 21.6778L17.2441 21.6949L14.4365 20.0748L15.276 18.6204L19.8638 21.2708C19.9799 21.1428 20.1037 21.0219 20.2344 20.9088L17.5811 16.3154L19.0354 15.4759L21.6915 20.0748C21.8518 20.0222 22.0176 19.9814 22.1856 19.9484V14.6309H23.8645V19.9654C24.0284 20.0007 24.1882 20.0459 24.3446 20.1002L27.0145 15.4759L28.4661 16.3154L25.7876 20.9536C25.9084 21.062 26.0228 21.1773 26.1303 21.2989L30.774 18.6204L31.6136 20.0747L26.9698 22.7559C27.0211 22.9097 27.0633 23.0663 27.0962 23.2249H32.4559V24.9039H27.0962C27.0634 25.0635 27.0212 25.221 26.9699 25.3756L31.6136 28.054L30.7741 29.5056L26.136 26.83C26.0276 26.9525 25.9123 27.0687 25.7907 27.1781L28.4664 31.8135L27.0149 32.653L24.3473 28.0342C24.1892 28.0888 24.028 28.1338 23.8644 28.1689V33.4952H22.1854V28.1859C22.0172 28.1523 21.8513 28.1081 21.6886 28.0539L19.0353 32.6528L17.5809 31.8133L20.237 27.2144C20.109 27.1002 19.9881 26.9783 19.8749 26.8494L15.2758 29.5054L14.4364 28.0539L17.1598 26.4817H8.9616L7.6701 28.739L7.65886 28.7588L7.64763 28.7755C6.5369 30.5139 5.85723 31.9886 5.57269 33.1526C5.28843 34.3167 5.38851 35.122 5.73567 35.7131C6.08292 36.3043 6.7377 36.78 7.86658 37.0973C8.99565 37.4146 10.5641 37.542 12.5273 37.4398L12.5498 37.4369H33.5984L33.6208 37.4397C35.7532 37.5505 37.3847 37.3977 38.5116 37.0522C39.6386 36.7067 40.2258 36.2146 40.5275 35.6034C40.8292 34.9923 40.8761 34.1457 40.5526 32.9868C40.2295 31.828 39.5365 30.4011 38.4976 28.7754L38.4891 28.7587L38.4779 28.7418L27.9719 10.5062L27.9635 10.4867L27.9522 10.4669C27.0363 8.66917 26.1299 7.35979 25.2878 6.54185C24.4455 5.724 23.7185 5.41233 23.0444 5.4188L23.0446 5.41898ZM22.9857 21.5486C22.0147 21.5486 21.1538 22.1239 20.7396 22.9301L20.5065 23.3876L19.9899 23.3848L10.7865 23.354L9.95545 24.8028H20.5487L20.7873 25.2463C21.2128 26.0423 22.0271 26.5855 22.9858 26.5855C24.3756 26.5855 25.5041 25.4571 25.5041 24.0672C25.5041 22.6771 24.3756 21.5487 22.9858 21.5487L22.9857 21.5486Z" fill="#F17E01"/>
</svg>
