<svg width="46" height="46" viewBox="0 0 46 46" fill="none" xmlns="http://www.w3.org/2000/svg">
<path d="M9.5835 7.66683L9.5835 16.4835L29.4402 5.02183C30.6668 4.27433 32.0277 3.8335 33.5418 3.8335C35.4061 3.83521 37.2059 4.51631 38.6041 5.74932C40.0024 6.98232 40.9034 8.68268 41.1384 10.5321C41.3734 12.3815 40.9263 14.2532 39.8808 15.7967C38.8353 17.3402 37.2631 18.4498 35.4585 18.9177L35.4585 26.8335L40.2502 26.8335C42.3585 26.8335 44.0835 28.5585 44.0835 30.6668L39.1193 30.6668L42.1668 33.7143L42.1668 42.1668L38.3335 42.1668L38.3335 35.286L33.7143 30.6668L33.3693 30.6668L28.7502 35.286L28.7502 42.1668L24.9168 42.1668L24.9168 33.7143L27.9643 30.6668L23.0002 30.6668C23.0002 29.6502 23.404 28.6751 24.1229 27.9563C24.8418 27.2374 25.8168 26.8335 26.8335 26.8335L31.6252 26.8335L31.6252 18.9177C30.8777 18.726 30.1685 18.4193 29.5168 18.036L9.58349 29.536L9.58349 38.3335C9.58349 39.3502 9.17962 40.3252 8.46074 41.0441C7.74185 41.763 6.76682 42.1668 5.75016 42.1668L3.83349 42.1668L3.8335 3.83349L5.75016 3.83349C7.8585 3.83349 9.5835 5.55849 9.5835 7.66683ZM26.8335 15.161C26.2202 14.0877 25.8752 12.8418 25.8752 11.5002L9.5835 20.911L9.5835 25.1085L26.8335 15.161ZM37.3752 11.5002C37.3752 10.4835 36.9713 9.50848 36.2524 8.78959C35.5335 8.0707 34.5585 7.66683 33.5418 7.66683C31.4143 7.66683 29.7085 9.37266 29.7085 11.5002C29.7085 13.6277 31.4143 15.3335 33.5418 15.3335C34.5585 15.3335 35.5335 14.9296 36.2524 14.2107C36.9713 13.4918 37.3752 12.5168 37.3752 11.5002Z" fill="#F17E01"/>
</svg>
