<svg width="46" height="46" viewBox="0 0 46 46" fill="none" xmlns="http://www.w3.org/2000/svg">
<path d="M28.6574 27.2536C27.7343 26.9566 26.9712 28.0155 27.545 28.7973L33.5497 36.9781C33.8789 37.4266 33.7787 38.0576 33.3267 38.3821L33.27 38.4228C32.8247 38.7426 32.205 38.6441 31.8806 38.2022L25.8442 29.9771C25.2725 29.1981 24.038 29.6025 24.038 30.5688V32.0328C24.038 32.5851 23.5903 33.0328 23.038 33.0328H22.9621C22.4098 33.0328 21.9621 32.5851 21.9621 32.0328V30.5687C21.9621 29.6024 20.7276 29.198 20.1559 29.977L14.1199 38.2015C13.7954 38.6437 13.1752 38.742 12.7299 38.4218L12.6738 38.3815C12.2224 38.0568 12.1224 37.4262 12.4515 36.9779L18.4558 28.7963C19.0295 28.0146 18.2666 26.9559 17.3435 27.2527L15.9273 27.708C15.4039 27.8764 14.8427 27.5905 14.6712 27.0681L14.6533 27.0139C14.4803 26.4869 14.7692 25.9196 15.2973 25.7498L16.6796 25.3054C17.6048 25.0079 17.6048 23.6989 16.6796 23.4014L6.95785 20.2754C6.4298 20.1057 6.14083 19.5385 6.31385 19.0115L6.33186 18.9566C6.5034 18.4342 7.06461 18.1482 7.58812 18.3166L17.3435 21.4539C18.2666 21.7507 19.0296 20.6918 18.4557 19.9101L17.6037 18.7496C17.2747 18.3015 17.3744 17.6711 17.8255 17.3462L17.8785 17.3081C18.3236 16.9876 18.9438 17.0855 19.2686 17.5275L20.1563 18.7354C20.7283 19.5138 21.9621 19.1092 21.9621 18.1432V8C21.9621 7.44771 22.4098 7 22.9621 7H23.0379C23.5902 7 24.0379 7.44772 24.0379 8V18.1433C24.0379 19.1093 25.2717 19.5138 25.8437 18.7355L26.7318 17.5271C27.0564 17.0853 27.6763 16.9873 28.1214 17.3073L28.1778 17.3479C28.6293 17.6726 28.7292 18.3033 28.4001 18.7516L27.5491 19.9108C26.9751 20.6926 27.7383 21.7516 28.6615 21.4545L38.4119 18.3168C38.9354 18.1483 39.4967 18.4342 39.6683 18.9567L39.6861 19.0107C39.8591 19.5377 39.5702 20.1049 39.0422 20.2747L29.319 23.4022C28.3939 23.6998 28.394 25.0087 29.3191 25.3062L30.7018 25.7508C31.23 25.9206 31.5189 26.4878 31.3458 27.0148L31.3281 27.0688C31.1565 27.5913 30.5952 27.8771 30.0717 27.7087L28.6574 27.2536Z" fill="#F17E01"/>
</svg>
