<svg width="46" height="46" viewBox="0 0 46 46" fill="none" xmlns="http://www.w3.org/2000/svg">
<g clip-path="url(#clip0_1103_292)">
<path d="M23.0012 0C16.8064 0 11.7303 5.06138 11.7303 11.2387C11.7303 13.6321 12.4948 15.8562 13.7888 17.6847L21.6258 31.2322C22.7233 32.666 23.452 32.3932 24.3651 31.1558L33.0085 16.4468C33.1833 16.1308 33.3208 15.7936 33.44 15.4505C33.9885 14.1141 34.2706 12.6833 34.2703 11.2387C34.2703 5.06138 29.196 0 23.0012 0ZM23.0012 5.26562C26.3366 5.26562 28.9895 7.91246 28.9895 11.2387C28.9895 14.565 26.3366 17.2095 23.0012 17.2095C19.6657 17.2095 17.0111 14.5645 17.0111 11.2387C17.0111 7.91292 19.6653 5.26562 23.0012 5.26562ZM12.9424 23C12.7089 23 12.4782 23.0507 12.2662 23.1487C12.0543 23.2467 11.8662 23.3897 11.7151 23.5676L0.382978 36.915C0.183956 37.1493 0.0561655 37.4356 0.0147089 37.7402C-0.0267476 38.0448 0.0198634 38.3549 0.149033 38.6339C0.278202 38.9128 0.484531 39.149 0.743632 39.3144C1.00273 39.4798 1.30378 39.5676 1.61118 39.5674L44.3912 39.5375C44.6983 39.5373 44.999 39.4492 45.2578 39.2837C45.5165 39.1181 45.7225 38.882 45.8514 38.6032C45.9804 38.3244 46.0268 38.0146 45.9854 37.7102C45.944 37.4059 45.8163 37.1197 45.6175 36.8856L34.3117 23.5676C34.1605 23.3897 33.9724 23.2467 33.7605 23.1487C33.5486 23.0507 33.3179 23 33.0844 23H31.2904C30.6602 24.0732 30.0337 25.1477 29.4025 26.22H32.3387L40.9131 36.3202L5.09154 36.3446L13.6871 26.22H16.5998L14.7373 23H12.9424Z" fill="#F17E01"/>
</g>
<defs>
<clipPath id="clip0_1103_292">
<rect width="46" height="46" fill="white"/>
</clipPath>
</defs>
</svg>
