<svg width="46" height="46" viewBox="0 0 46 46" fill="none" xmlns="http://www.w3.org/2000/svg">
<path d="M11.5001 8.0499C11.5001 7.7449 11.6213 7.4524 11.8369 7.23673C12.0526 7.02106 12.3451 6.8999 12.6501 6.8999H19.5501C19.8551 6.8999 20.1476 7.02106 20.3633 7.23673C20.5789 7.4524 20.7001 7.7449 20.7001 8.0499V14.9499C20.7001 15.2549 20.5789 15.5474 20.3633 15.7631C20.1476 15.9787 19.8551 16.0999 19.5501 16.0999H12.6501C12.3451 16.0999 12.0526 15.9787 11.8369 15.7631C11.6213 15.5474 11.5001 15.2549 11.5001 14.9499V8.0499ZM26.4501 6.8999C26.1451 6.8999 25.8526 7.02106 25.6369 7.23673C25.4213 7.4524 25.3001 7.7449 25.3001 8.0499V14.9499C25.3001 15.2549 25.4213 15.5474 25.6369 15.7631C25.8526 15.9787 26.1451 16.0999 26.4501 16.0999H33.3501C33.6551 16.0999 33.9476 15.9787 34.1633 15.7631C34.3789 15.5474 34.5001 15.2549 34.5001 14.9499V8.0499C34.5001 7.7449 34.3789 7.4524 34.1633 7.23673C33.9476 7.02106 33.6551 6.8999 33.3501 6.8999H26.4501ZM27.6001 13.7999V9.1999H32.2001V13.7999H27.6001ZM4.6001 27.5999C4.6001 25.1599 5.56938 22.8199 7.29472 21.0945C9.02005 19.3692 11.3601 18.3999 13.8001 18.3999H32.2001C34.6401 18.3999 36.9801 19.3692 38.7055 21.0945C40.4308 22.8199 41.4001 25.1599 41.4001 27.5999C41.4001 30.0399 40.4308 32.3799 38.7055 34.1053C36.9801 35.8306 34.6401 36.7999 32.2001 36.7999H13.8001C11.3601 36.7999 9.02005 35.8306 7.29472 34.1053C5.56938 32.3799 4.6001 30.0399 4.6001 27.5999ZM16.1001 27.5999C16.1001 26.9899 15.8578 26.4049 15.4264 25.9736C14.9951 25.5422 14.4101 25.2999 13.8001 25.2999C13.1901 25.2999 12.6051 25.5422 12.1738 25.9736C11.7424 26.4049 11.5001 26.9899 11.5001 27.5999C11.5001 28.2099 11.7424 28.7949 12.1738 29.2262C12.6051 29.6576 13.1901 29.8999 13.8001 29.8999C14.4101 29.8999 14.9951 29.6576 15.4264 29.2262C15.8578 28.7949 16.1001 28.2099 16.1001 27.5999ZM25.3001 27.5999C25.3001 26.9899 25.0578 26.4049 24.6264 25.9736C24.1951 25.5422 23.6101 25.2999 23.0001 25.2999C22.3901 25.2999 21.8051 25.5422 21.3738 25.9736C20.9424 26.4049 20.7001 26.9899 20.7001 27.5999C20.7001 28.2099 20.9424 28.7949 21.3738 29.2262C21.8051 29.6576 22.3901 29.8999 23.0001 29.8999C23.6101 29.8999 24.1951 29.6576 24.6264 29.2262C25.0578 28.7949 25.3001 28.2099 25.3001 27.5999ZM32.2001 29.8999C32.8101 29.8999 33.3951 29.6576 33.8264 29.2262C34.2578 28.7949 34.5001 28.2099 34.5001 27.5999C34.5001 26.9899 34.2578 26.4049 33.8264 25.9736C33.3951 25.5422 32.8101 25.2999 32.2001 25.2999C31.5901 25.2999 31.0051 25.5422 30.5738 25.9736C30.1424 26.4049 29.9001 26.9899 29.9001 27.5999C29.9001 28.2099 30.1424 28.7949 30.5738 29.2262C31.0051 29.6576 31.5901 29.8999 32.2001 29.8999Z" fill="#F17E01"/>
</svg>
