<svg width="46" height="46" viewBox="0 0 46 46" fill="none" xmlns="http://www.w3.org/2000/svg">
<path d="M42.167 22.9998H44.0837M23.0003 3.83317V1.9165M23.0003 44.0832V42.1665M38.3337 38.3332L36.417 36.4165M38.3337 7.6665L36.417 9.58317M7.66699 38.3332L9.58366 36.4165M7.66699 7.6665L9.58366 9.58317M1.91699 22.9998H3.83366M23.0003 34.4998C26.0503 34.4998 28.9754 33.2882 31.1321 31.1316C33.2887 28.9749 34.5003 26.0498 34.5003 22.9998C34.5003 19.9498 33.2887 17.0248 31.1321 14.8681C28.9754 12.7114 26.0503 11.4998 23.0003 11.4998C19.9503 11.4998 17.0253 12.7114 14.8686 14.8681C12.7119 17.0248 11.5003 19.9498 11.5003 22.9998C11.5003 26.0498 12.7119 28.9749 14.8686 31.1316C17.0253 33.2882 19.9503 34.4998 23.0003 34.4998Z" stroke="#F17E01" stroke-width="1.5" stroke-linecap="round" stroke-linejoin="round"/>
</svg>
