<svg width="46" height="46" viewBox="0 0 46 46" fill="none" xmlns="http://www.w3.org/2000/svg">
<path d="M13.0222 25.2999C12.6852 23.7926 12.6912 22.2289 13.0398 20.7243C13.3885 19.2196 14.0709 17.8126 15.0365 16.6072C16.0021 15.4018 17.2263 14.4288 18.6186 13.7602C20.0109 13.0916 21.5356 12.7445 23.0801 12.7445C24.6246 12.7445 26.1493 13.0916 27.5416 13.7602C28.9339 14.4288 30.1581 15.4018 31.1237 16.6072C32.0894 17.8126 32.7717 19.2196 33.1204 20.7243C33.469 22.2289 33.4751 23.7926 33.138 25.2999H40.2496C40.5546 25.2999 40.8471 25.4211 41.0628 25.6367C41.2785 25.8524 41.3996 26.1449 41.3996 26.4499C41.3996 26.7549 41.2785 27.0474 41.0628 27.2631C40.8471 27.4787 40.5546 27.5999 40.2496 27.5999H5.74961C5.44461 27.5999 5.1521 27.4787 4.93644 27.2631C4.72077 27.0474 4.59961 26.7549 4.59961 26.4499C4.59961 26.1449 4.72077 25.8524 4.93644 25.6367C5.1521 25.4211 5.44461 25.2999 5.74961 25.2999H13.0222ZM23.3101 41.3999C23.1435 41.4375 22.9707 41.4375 22.8041 41.3999H23.3101ZM11.6744 10.0785L11.5157 9.94509C11.2796 9.78108 10.9906 9.71147 10.7057 9.74996C10.4208 9.78845 10.1606 9.93226 9.97649 10.1531C9.79236 10.3738 9.6976 10.6556 9.71089 10.9428C9.72419 11.23 9.84457 11.5018 10.0483 11.7046L12.0217 13.678L12.1827 13.8114C12.4188 13.9754 12.7078 14.045 12.9927 14.0065C13.2776 13.968 13.5378 13.8242 13.7219 13.6034C13.9061 13.3826 14.0008 13.1009 13.9875 12.8137C13.9742 12.5265 13.8539 12.2547 13.6501 12.0519L11.6744 10.0785ZM36.1993 11.5436C36.3607 11.3073 36.4282 11.0194 36.3887 10.7361C36.3492 10.4527 36.2055 10.1942 35.9856 10.0112C35.7657 9.8281 35.4855 9.73355 35.1997 9.746C34.9139 9.75845 34.6429 9.877 34.4398 10.0785L32.4641 12.0519L32.3307 12.2129C32.1693 12.4491 32.1018 12.7371 32.1413 13.0204C32.1808 13.3038 32.3246 13.5622 32.5444 13.7453C32.7643 13.9284 33.0445 14.0229 33.3303 14.0105C33.6162 13.998 33.8871 13.8795 34.0902 13.678L36.0659 11.7046L36.1993 11.5436ZM24.1956 5.60039C24.1444 5.31761 23.9892 5.06425 23.7605 4.8902C23.5319 4.71614 23.2463 4.63401 22.9601 4.65998C22.6739 4.68595 22.4078 4.81813 22.2142 5.03049C22.0206 5.24286 21.9135 5.52002 21.914 5.80739V8.59729L21.9324 8.80429C21.9836 9.08707 22.1388 9.34043 22.3675 9.51449C22.5962 9.68854 22.8817 9.77067 23.1679 9.74471C23.4541 9.71874 23.7202 9.58656 23.9138 9.37419C24.1075 9.16183 24.2145 8.88467 24.214 8.59729V5.80509L24.1956 5.60039ZM19.5496 36.7999C19.2446 36.7999 18.9521 36.9211 18.7364 37.1367C18.5208 37.3524 18.3996 37.6449 18.3996 37.9499C18.3996 38.2549 18.5208 38.5474 18.7364 38.7631C18.9521 38.9787 19.2446 39.0999 19.5496 39.0999H26.4496C26.7546 39.0999 27.0471 38.9787 27.2628 38.7631C27.4784 38.5474 27.5996 38.2549 27.5996 37.9499C27.5996 37.6449 27.4784 37.3524 27.2628 37.1367C27.0471 36.9211 26.7546 36.7999 26.4496 36.7999H19.5496ZM11.4996 32.1999C11.4996 31.8949 11.6208 31.6024 11.8364 31.3867C12.0521 31.1711 12.3446 31.0499 12.6496 31.0499H33.3496C33.6546 31.0499 33.9471 31.1711 34.1628 31.3867C34.3784 31.6024 34.4996 31.8949 34.4996 32.1999C34.4996 32.5049 34.3784 32.7974 34.1628 33.0131C33.9471 33.2287 33.6546 33.3499 33.3496 33.3499H12.6496C12.3446 33.3499 12.0521 33.2287 11.8364 33.0131C11.6208 32.7974 11.4996 32.5049 11.4996 32.1999Z" fill="#F17E01"/>
</svg>
