<svg width="46" height="46" viewBox="0 0 46 46" fill="none" xmlns="http://www.w3.org/2000/svg">
<path d="M26.1928 2.73975L39.1303 10.3681C39.2581 10.4448 39.3731 10.5297 39.4753 10.623L39.4926 10.6383L39.6958 10.7821C40.4146 11.3206 41.0072 12.0095 41.4323 12.8007C41.8573 13.5919 42.1046 14.4663 42.1568 15.3629L42.1663 15.752V29.713C42.1663 31.9651 40.9339 34.037 39.0556 35.0663L26.0146 43.3118C24.1363 44.3429 21.8631 44.3429 19.8813 43.2504L7.04918 35.1295C6.07743 34.5971 5.26638 33.8136 4.70066 32.8609C4.13495 31.9082 3.83531 30.821 3.83301 29.713V15.7501C3.83213 14.6525 4.12492 13.5746 4.681 12.6282C5.23708 11.6819 6.03621 10.9015 6.99551 10.3681L19.9809 2.711C20.9334 2.18846 22.0032 1.91691 23.0896 1.92194C24.1761 1.92697 25.2433 2.20841 26.1909 2.73975M24.9643 12.9805C24.382 12.6455 23.7229 12.4669 23.0511 12.4622C22.3794 12.4575 21.7178 12.6268 21.1309 12.9537L15.3368 16.4113C14.751 16.7464 14.2645 17.231 13.9271 17.8155C13.5897 18.4001 13.4134 19.0637 13.4163 19.7387V26.0215C13.416 26.7059 13.5989 27.3779 13.9461 27.9678C14.2932 28.5576 14.792 29.0437 15.3905 29.3757L21.037 32.9982C22.2963 33.7016 23.7012 33.7016 24.8588 33.0614L30.7123 29.3143C31.8278 28.6972 32.583 27.413 32.583 26.0196V19.7387L32.5734 19.4243C32.5334 18.9092 32.3897 18.4075 32.1509 17.9494C31.9121 17.4912 31.5832 17.0861 31.1838 16.7583L31.0075 16.6241L30.9002 16.534C30.8413 16.4896 30.7798 16.4487 30.7162 16.4113L24.9643 12.9805Z" fill="#F17E01"/>
</svg>
