<svg width="46" height="46" viewBox="0 0 46 46" fill="none" xmlns="http://www.w3.org/2000/svg">
<path d="M17.2497 36.4173C13.5045 36.4173 10.3318 35.1185 7.73151 32.5207C5.13251 29.9217 3.83301 26.7503 3.83301 23.0064C3.83301 19.2625 5.13251 16.0898 7.73151 13.4882C10.3305 10.8867 13.5032 9.58526 17.2497 9.58398H28.7497C32.4948 9.58398 35.6676 10.8835 38.2678 13.4825C40.8668 16.0802 42.1663 19.251 42.1663 22.9949C42.1663 26.7388 40.8668 29.9122 38.2678 32.515C35.6688 35.1178 32.4961 36.4186 28.7497 36.4173H17.2497ZM22.9997 25.8757C23.8085 25.8757 24.4896 25.5984 25.0428 25.0438C25.5974 24.4905 25.8747 23.8095 25.8747 23.0007C25.8747 22.1918 25.5974 21.5108 25.0428 20.9575C24.4883 20.4042 23.8072 20.1269 22.9997 20.1257C22.1921 20.1244 21.5111 20.4017 20.9565 20.9575C20.402 21.5108 20.1247 22.1918 20.1247 23.0007C20.1247 23.8095 20.402 24.4905 20.9565 25.0438C21.5111 25.5971 22.1921 25.8744 22.9997 25.8757ZM21.083 16.2923H24.9163C25.1885 16.2923 25.416 16.2003 25.5987 16.0163C25.7814 15.8323 25.8734 15.6042 25.8747 15.3321C25.876 15.0599 25.784 14.8325 25.5987 14.6497C25.4134 14.467 25.186 14.3757 24.9163 14.3757H21.083C20.8108 14.3757 20.5834 14.4677 20.4007 14.6517C20.218 14.8357 20.126 15.0637 20.1247 15.3359C20.1234 15.6081 20.2154 15.8355 20.4007 16.0182C20.586 16.201 20.8134 16.2923 21.083 16.2923ZM21.083 31.6257H24.9163C25.1885 31.6257 25.416 31.5337 25.5987 31.3497C25.7814 31.1657 25.8734 30.9376 25.8747 30.6654C25.876 30.3932 25.784 30.1658 25.5987 29.9831C25.4134 29.8003 25.186 29.709 24.9163 29.709H21.083C20.8108 29.709 20.5834 29.801 20.4007 29.985C20.218 30.169 20.126 30.3971 20.1247 30.6692C20.1234 30.9414 20.2154 31.1688 20.4007 31.3516C20.586 31.5343 20.8134 31.6257 21.083 31.6257ZM30.6663 25.8757C30.9398 25.8757 31.1679 25.7837 31.3506 25.5997C31.5333 25.4157 31.6247 25.1882 31.6247 24.9173V21.084C31.6247 20.8118 31.5327 20.5844 31.3487 20.4017C31.1647 20.2189 30.9366 20.1269 30.6644 20.1257C30.3923 20.1244 30.1648 20.2164 29.9821 20.4017C29.7994 20.5869 29.708 20.8144 29.708 21.084V24.9173C29.708 25.1895 29.8 25.4169 29.984 25.5997C30.168 25.7824 30.3942 25.8744 30.6663 25.8757ZM15.3349 25.8757C15.6071 25.8757 15.8345 25.7837 16.0173 25.5997C16.2 25.4157 16.2913 25.1882 16.2913 24.9173V21.084C16.2913 20.8118 16.1993 20.5844 16.0153 20.4017C15.8313 20.2189 15.6033 20.1269 15.3311 20.1257C15.0589 20.1244 14.8315 20.2164 14.6488 20.4017C14.466 20.5869 14.3747 20.8144 14.3747 21.084V24.9173C14.3747 25.1895 14.4667 25.4169 14.6507 25.5997C14.8347 25.7824 15.0628 25.8744 15.3349 25.8757Z" fill="#F17E01"/>
</svg>
