<svg width="46" height="46" viewBox="0 0 46 46" fill="none" xmlns="http://www.w3.org/2000/svg">
<path fill-rule="evenodd" clip-rule="evenodd" d="M22.9997 3.83398C33.5854 3.83398 42.1663 12.4149 42.1663 23.0007C42.1663 33.5864 33.5854 42.1673 22.9997 42.1673C12.4139 42.1673 3.83301 33.5864 3.83301 23.0007C3.83301 12.4149 12.4139 3.83398 22.9997 3.83398ZM20.1822 29.1282L18.7504 31.2749C18.1428 32.1872 17.7883 33.8892 19.1261 35.0584C19.9215 35.7542 21.1865 36.4192 22.9997 36.4192C24.8128 36.4192 26.0778 35.7542 26.8733 35.0584C28.2111 33.8892 27.8565 32.1872 27.2489 31.2768L25.8172 29.1282C25.5079 28.6645 25.0889 28.2843 24.5974 28.0213C24.1059 27.7584 23.5571 27.6208 22.9997 27.6208C22.4423 27.6208 21.8935 27.7584 21.402 28.0213C20.9105 28.2843 20.4915 28.6645 20.1822 29.1282ZM32.1843 21.5172L29.6984 22.2148C29.1618 22.3656 28.6706 22.6465 28.2686 23.0326C27.8665 23.4187 27.566 23.8981 27.3936 24.4282C27.2213 24.9583 27.1825 25.5228 27.2806 26.0715C27.3787 26.6203 27.6108 27.1363 27.9562 27.5738L29.5566 29.5997C30.2351 30.4584 31.7454 31.3247 33.2711 30.4124C34.1777 29.87 35.2012 28.8733 35.7628 27.1483C36.3224 25.4233 36.0809 24.0146 35.665 23.0428C34.9673 21.4079 33.2366 21.2201 32.1843 21.5172ZM13.815 21.5172C12.7608 21.2201 11.032 21.4079 10.3343 23.0428C9.91842 24.0146 9.67692 25.4214 10.2385 27.1483C10.7982 28.8733 11.8198 29.87 12.7302 30.4124C14.1638 31.2691 15.586 30.5542 16.3143 29.7512L16.4428 29.5997L18.0432 27.5738C18.3743 27.1546 18.6016 26.663 18.7065 26.1391C18.8113 25.6153 18.7908 25.0741 18.6465 24.5597C18.5022 24.0453 18.2382 23.5724 17.8762 23.1795C17.5142 22.7866 17.0644 22.485 16.5635 22.2992L16.3009 22.2148L13.815 21.5172ZM15.1126 12.1447C13.6444 13.2103 13.0138 14.4907 12.7781 15.5237C12.3833 17.2545 13.6713 18.4237 14.6967 18.8032L17.1193 19.7002C17.6421 19.8933 18.2044 19.9545 18.7565 19.8782C19.3085 19.802 19.8332 19.5907 20.284 19.2631C20.7348 18.9355 21.0979 18.5017 21.3409 18.0002C21.5839 17.4987 21.6994 16.945 21.6772 16.3882L21.5737 13.8064C21.5296 12.7139 20.8166 11.1269 19.0475 10.9697C17.9933 10.8739 16.5788 11.079 15.1126 12.1447ZM30.8868 12.1447C29.4205 11.079 28.006 10.8739 26.9538 10.9678C25.2863 11.1173 24.5579 12.5318 24.441 13.609L24.4257 13.8064L24.3222 16.3882C24.301 16.9226 24.4068 17.4544 24.6307 17.9401C24.8547 18.4258 25.1904 18.8515 25.6106 19.1825C26.0307 19.5134 26.5233 19.7402 27.0479 19.8441C27.5725 19.9481 28.1143 19.9264 28.6289 19.7807L28.88 19.7002L31.3027 18.8032C32.3281 18.4237 33.6161 17.2545 33.2213 15.5218C32.9874 14.4907 32.3549 13.2103 30.8868 12.1447Z" fill="#F17E01"/>
</svg>
