<svg width="106" height="95" viewBox="0 0 106 95" fill="none" xmlns="http://www.w3.org/2000/svg">
<path d="M88.3918 0L23.587 17.3644L19.0768 34.3434L83.8817 16.979L88.3918 0Z" fill="white"/>
<path d="M14.1948 19.881L11.0644 20.7198L6.55426 37.6988L9.68462 36.86L14.1948 19.881Z" fill="white"/>
<path d="M7.93351 21.5588L4.80315 22.3976L0.292969 39.3766L3.42333 38.5378L7.93351 21.5588Z" fill="white"/>
<path d="M20.4561 18.2033L17.3257 19.0421L12.8155 36.0211L15.9459 35.1823L20.4561 18.2033Z" fill="white"/>
<path d="M105.534 18.4613L65.5494 29.1244L61.1845 45.3934L85.2424 38.857L76.7418 70.9982L44.1437 79.8739C37.3991 81.6811 24.0759 76.3591 27.4324 59.9281C29.8263 51.0228 31.0846 46.3268 33.3914 37.7177L33.3914 37.7174L17.0936 42.3478L12.396 59.8795C12.2021 61.6842 12.108 64.0342 12.108 64.0342C12.9074 90.8391 38.3736 96.5195 47.9187 93.9619L88.3042 83.1406L101.186 34.9195L105.534 18.4613Z" fill="#F17E01"/>
<path d="M70.9802 65.2374L43.8632 72.5668C38.228 74.0767 32.3128 68.2797 34.5891 59.9337L43.8306 27.5601L60.4231 23.1142L51.0458 55.5427L75.2584 49.2709L70.9802 65.2374Z" fill="white"/>
</svg>
