<svg width="52" height="52" viewBox="0 0 52 52" fill="none" xmlns="http://www.w3.org/2000/svg">
<g clip-path="url(#clip0_955_775)">
<path d="M26 0C19.1059 0 12.4881 2.74097 7.61719 7.61516C2.74126 12.4913 0.00139526 19.1042 0 26C0 32.8928 2.74219 39.5107 7.61719 44.3848C12.4881 49.259 19.1059 52 26 52C32.8941 52 39.5119 49.259 44.3828 44.3848C49.2578 39.5107 52 32.8928 52 26C52 19.1072 49.2578 12.4893 44.3828 7.61516C39.5119 2.74097 32.8941 0 26 0Z" fill="url(#paint0_linear_955_775)"/>
<path d="M11.7688 25.7251C19.3495 22.4231 24.4032 20.2461 26.9301 19.1942C34.1532 16.1908 35.6523 15.6692 36.6313 15.6515C36.8466 15.6481 37.326 15.7013 37.6388 15.9542C37.8988 16.1675 37.972 16.4559 38.0085 16.6584C38.041 16.8607 38.0857 17.3218 38.0491 17.6818C37.6591 21.793 35.9651 31.7697 35.1038 36.3745C34.7423 38.3229 34.0232 38.9762 33.3285 39.0399C31.8173 39.1789 30.6716 38.0422 29.2091 37.0838C26.922 35.5836 25.6301 34.65 23.4079 33.1863C20.8404 31.4947 22.506 30.5648 23.9685 29.0454C24.3504 28.6477 31.0048 22.5966 31.1307 22.0477C31.147 21.9791 31.1632 21.7231 31.0088 21.5883C30.8585 21.453 30.6351 21.4993 30.4726 21.5358C30.241 21.5878 26.5888 24.0042 19.5038 28.7846C18.4679 29.4971 17.5295 29.8445 16.6845 29.8262C15.7582 29.8063 13.9707 29.3013 12.6423 28.8699C11.0173 28.3405 9.72133 28.0606 9.83508 27.1616C9.89196 26.6936 10.5379 26.2146 11.7688 25.7251Z" fill="white"/>
</g>
<defs>
<linearGradient id="paint0_linear_955_775" x1="2600" y1="0" x2="2600" y2="5200" gradientUnits="userSpaceOnUse">
<stop stop-color="#2AABEE"/>
<stop offset="1" stop-color="#229ED9"/>
</linearGradient>
<clipPath id="clip0_955_775">
<rect width="52" height="52" fill="white"/>
</clipPath>
</defs>
</svg>
