<svg width="60" height="60" viewBox="0 0 60 60" fill="none" xmlns="http://www.w3.org/2000/svg">
<g clip-path="url(#clip0_955_771)">
<path d="M1.28047 29.641C1.27906 34.6821 2.60656 39.6045 5.13078 43.9431L1.03906 58.7668L16.3278 54.7891C20.5565 57.0733 25.2944 58.2702 30.1091 58.2705H30.1217C46.0159 58.2705 58.9541 45.4373 58.9609 29.6635C58.9639 22.0201 55.9667 14.8326 50.5213 9.42517C45.0767 4.01819 37.8357 1.03889 30.1205 1.0354C14.2245 1.0354 1.28727 13.868 1.2807 29.641" fill="url(#paint0_linear_955_771)"/>
<path d="M0.250781 29.6316C0.249141 34.8542 1.62422 39.9526 4.23844 44.4465L0 59.8016L15.837 55.6814C20.2005 58.0421 25.1135 59.2867 30.1127 59.2886H30.1256C46.59 59.2886 59.993 45.9937 60 29.6553C60.0028 21.7372 56.8978 14.2914 51.2578 8.69023C45.6171 3.08977 38.1171 0.00325581 30.1256 0C13.6584 0 0.257344 13.293 0.250781 29.6316ZM9.68227 43.6726L9.09094 42.7412C6.60516 38.8193 5.29312 34.2872 5.295 29.6335C5.30016 16.0533 16.4386 5.00465 30.135 5.00465C36.7678 5.00744 43.0013 7.57302 47.6897 12.2279C52.3779 16.8833 54.9577 23.0716 54.956 29.6535C54.9499 43.2337 43.8112 54.2837 30.1256 54.2837H30.1158C25.6596 54.2814 21.2892 53.094 17.4778 50.85L16.5708 50.3163L7.17281 52.7612L9.68227 43.6726Z" fill="url(#paint1_linear_955_771)"/>
<path d="M22.6586 17.2433C22.0994 16.01 21.5109 15.9851 20.9791 15.9635C20.5436 15.9449 20.0458 15.9463 19.5484 15.9463C19.0506 15.9463 18.2418 16.1321 17.5581 16.8728C16.8737 17.6142 14.9453 19.4058 14.9453 23.0498C14.9453 26.6938 17.6202 30.2156 17.9931 30.7103C18.3665 31.204 23.1571 38.9212 30.7443 41.89C37.0499 44.3572 38.3331 43.8665 39.7016 43.7428C41.0704 43.6196 44.1182 41.9517 44.74 40.2221C45.3623 38.4928 45.3623 37.0105 45.1757 36.7007C44.9891 36.3921 44.4913 36.2068 43.7448 35.8365C42.9984 35.4663 39.3283 33.6742 38.6441 33.427C37.9598 33.18 37.4622 33.0568 36.9644 33.7984C36.4666 34.5389 35.0371 36.2068 34.6014 36.7007C34.1662 37.1958 33.7305 37.2575 32.9842 36.887C32.2373 36.5154 29.8333 35.7342 26.9812 33.2112C24.7621 31.2479 23.264 28.8235 22.8285 28.0819C22.393 27.3414 22.7819 26.94 23.1562 26.571C23.4916 26.2391 23.9029 25.7061 24.2765 25.2738C24.6487 24.8412 24.7729 24.5326 25.0218 24.0386C25.2709 23.5442 25.1462 23.1117 24.9599 22.7412C24.7729 22.3707 23.3223 18.7077 22.6586 17.2433Z" fill="white"/>
</g>
<defs>
<linearGradient id="paint0_linear_955_771" x1="2897.13" y1="5774.18" x2="2897.13" y2="1.0354" gradientUnits="userSpaceOnUse">
<stop stop-color="#1FAF38"/>
<stop offset="1" stop-color="#60D669"/>
</linearGradient>
<linearGradient id="paint1_linear_955_771" x1="3000" y1="5980.16" x2="3000" y2="0" gradientUnits="userSpaceOnUse">
<stop stop-color="#F9F9F9"/>
<stop offset="1" stop-color="white"/>
</linearGradient>
<clipPath id="clip0_955_771">
<rect width="60" height="60" fill="white"/>
</clipPath>
</defs>
</svg>
