<svg width="328" height="198" viewBox="0 0 328 198" fill="none" xmlns="http://www.w3.org/2000/svg">
<path d="M196.392 0L131.587 17.3644L127.077 34.3434L191.882 16.979L196.392 0Z" fill="white"/>
<path d="M122.195 19.881L119.064 20.7198L114.554 37.6988L117.685 36.86L122.195 19.881Z" fill="white"/>
<path d="M115.934 21.5588L112.803 22.3976L108.293 39.3766L111.423 38.5378L115.934 21.5588Z" fill="white"/>
<path d="M128.456 18.2033L125.326 19.0421L120.816 36.0211L123.946 35.1823L128.456 18.2033Z" fill="white"/>
<path d="M213.534 18.4613L173.549 29.1244L169.185 45.3934L193.242 38.857L184.742 70.9982L152.144 79.8739C145.399 81.6811 132.076 76.3591 135.432 59.9281C137.826 51.0228 139.085 46.3268 141.391 37.7177L141.391 37.7174L125.094 42.3478L120.396 59.8795C120.202 61.6842 120.108 64.0342 120.108 64.0342C120.907 90.8391 146.374 96.5195 155.919 93.9619L196.304 83.1406L209.186 34.9195L213.534 18.4613Z" fill="#F17E01"/>
<path d="M178.98 65.2374L151.863 72.5668C146.228 74.0767 140.313 68.2797 142.589 59.9337L151.831 27.5601L168.423 23.1142L159.046 55.5427L183.258 49.2709L178.98 65.2374Z" fill="white"/>
<path d="M0 122.538V114.156H36.3439V122.538H22.8116V158.648H13.5323V122.538H0Z" fill="white"/>
<path d="M40.0985 148.202V135.048C40.0985 128.084 43.5782 124.602 50.5377 124.602H59.5592C66.5187 124.602 69.9984 128.084 69.9984 135.048V148.202C69.9984 155.166 66.5187 158.648 59.5592 158.648H50.5377C43.5782 158.648 40.0985 155.166 40.0985 148.202ZM48.9911 148.847C48.9911 150.222 49.6785 150.91 51.0532 150.91H59.0437C60.4184 150.91 61.1058 150.222 61.1058 148.847V134.403C61.1058 133.027 60.4184 132.339 59.0437 132.339H51.0532C49.6785 132.339 48.9911 133.027 48.9911 134.403V148.847Z" fill="white"/>
<path d="M79.1357 158.648V128.986C80.7252 126.063 83.7754 124.602 88.2861 124.602H95.2456L99.112 127.503V132.339H90.6704C89.3816 132.339 88.5009 132.662 88.0284 133.307V158.648H79.1357Z" fill="white"/>
<path d="M105.897 118.992V110.287H115.177V118.992H105.897ZM106.091 158.648V124.602H114.983V158.648H106.091Z" fill="white"/>
<path d="M122.859 142.785V135.177H142.191V142.785H122.859Z" fill="white"/>
<path d="M150.045 147.815V124.989C150.045 117.767 153.654 114.156 160.871 114.156H179.494L183.812 117.509V122.538H161.258C159.969 122.538 159.325 123.183 159.325 124.473V148.331C159.325 149.62 159.969 150.265 161.258 150.265H175.821V139.948H167.315V131.566H185.1V158.648H160.871C153.654 158.648 150.045 155.037 150.045 147.815Z" fill="white"/>
<path d="M194.105 158.648V128.986C195.694 126.063 198.744 124.602 203.255 124.602H210.215L214.081 127.503V132.339H205.639C204.351 132.339 203.47 132.662 202.997 133.307V158.648H194.105Z" fill="white"/>
<path d="M220.544 148.202V135.048C220.544 128.084 224.024 124.602 230.983 124.602H240.005C246.964 124.602 250.444 128.084 250.444 135.048V148.202C250.444 155.166 246.964 158.648 240.005 158.648H230.983C224.024 158.648 220.544 155.166 220.544 148.202ZM229.437 148.847C229.437 150.222 230.124 150.91 231.499 150.91H239.489C240.864 150.91 241.551 150.222 241.551 148.847V134.403C241.551 133.027 240.864 132.339 239.489 132.339H231.499C230.124 132.339 229.437 133.027 229.437 134.403V148.847Z" fill="white"/>
<path d="M259.581 148.202V124.602H268.474V148.847C268.474 150.222 269.161 150.91 270.536 150.91H279.944V124.602H288.837V158.648H270.021C263.061 158.648 259.581 155.166 259.581 148.202Z" fill="white"/>
<path d="M298.744 171.544V124.602H317.561C324.52 124.602 328 128.084 328 135.048V148.202C328 155.166 324.52 158.648 317.561 158.648H307.637V171.544H298.744ZM307.637 150.91H317.045C318.42 150.91 319.107 150.222 319.107 148.847V134.403C319.107 133.027 318.42 132.339 317.045 132.339H307.637V150.91Z" fill="white"/>
<path d="M51.2715 192.611V178.726H61.6949V192.611H59.9641V180.262H53.0217V192.611H51.2715Z" fill="white"/>
<path d="M70.4156 181.993C71.6991 181.993 72.7298 182.44 73.5077 183.335C74.2985 184.229 74.6939 185.578 74.6939 187.38C74.6939 188.559 74.5124 189.558 74.1494 190.374C73.7994 191.178 73.3002 191.788 72.652 192.202C72.0167 192.604 71.2648 192.805 70.3962 192.805C69.8647 192.805 69.3914 192.734 68.9766 192.591C68.5617 192.449 68.2052 192.267 67.907 192.047C67.6218 191.814 67.3755 191.561 67.168 191.288H67.0514C67.0773 191.509 67.1032 191.788 67.1292 192.125C67.1551 192.462 67.168 192.753 67.168 193V197.278H65.4567V182.187H66.8569L67.0903 183.607H67.168C67.3755 183.309 67.6218 183.037 67.907 182.79C68.2052 182.544 68.5552 182.35 68.9571 182.207C69.372 182.064 69.8582 181.993 70.4156 181.993ZM70.1045 183.432C69.4044 183.432 68.8405 183.568 68.4126 183.84C67.9848 184.1 67.6737 184.495 67.4792 185.027C67.2847 185.558 67.181 186.232 67.168 187.049V187.38C67.168 188.235 67.2588 188.961 67.4403 189.558C67.6218 190.154 67.9265 190.608 68.3543 190.919C68.7951 191.23 69.3915 191.386 70.1434 191.386C70.7786 191.386 71.2972 191.211 71.6991 190.861C72.114 190.511 72.4186 190.037 72.6131 189.441C72.8205 188.832 72.9243 188.138 72.9243 187.36C72.9243 186.168 72.6909 185.215 72.2242 184.502C71.7704 183.789 71.0639 183.432 70.1045 183.432Z" fill="white"/>
<path d="M86.6776 187.38C86.6776 188.248 86.5609 189.02 86.3275 189.694C86.1072 190.355 85.783 190.919 85.3552 191.386C84.9404 191.852 84.4283 192.209 83.8189 192.455C83.2226 192.689 82.5549 192.805 81.8159 192.805C81.1288 192.805 80.4936 192.689 79.9102 192.455C79.3268 192.209 78.8211 191.852 78.3933 191.386C77.9655 190.919 77.6284 190.355 77.3821 189.694C77.1487 189.02 77.0321 188.248 77.0321 187.38C77.0321 186.226 77.2265 185.254 77.6155 184.463C78.0044 183.659 78.5619 183.05 79.2879 182.635C80.0139 182.207 80.876 181.993 81.8743 181.993C82.8207 181.993 83.6504 182.207 84.3634 182.635C85.0894 183.05 85.6534 183.659 86.0553 184.463C86.4702 185.254 86.6776 186.226 86.6776 187.38ZM78.8017 187.38C78.8017 188.196 78.9054 188.91 79.1128 189.519C79.3332 190.115 79.6703 190.575 80.1241 190.9C80.5778 191.224 81.1547 191.386 81.8548 191.386C82.5549 191.386 83.1318 191.224 83.5856 190.9C84.0393 190.575 84.3699 190.115 84.5774 189.519C84.7977 188.91 84.9079 188.196 84.9079 187.38C84.9079 186.55 84.7977 185.843 84.5774 185.26C84.357 184.677 84.0199 184.229 83.5661 183.918C83.1253 183.594 82.5484 183.432 81.8354 183.432C80.7723 183.432 80.0009 183.782 79.5212 184.482C79.0415 185.182 78.8017 186.148 78.8017 187.38Z" fill="white"/>
<path d="M91.1983 188.547C91.1983 188.663 91.1918 188.832 91.1789 189.052C91.1789 189.26 91.1724 189.486 91.1594 189.733C91.1465 189.966 91.1335 190.193 91.1205 190.413C91.1076 190.621 91.0946 190.789 91.0816 190.919L96.6628 182.187H98.7631V192.611H97.1684V186.466C97.1684 186.258 97.1684 185.986 97.1684 185.649C97.1814 185.312 97.1944 184.981 97.2073 184.657C97.2203 184.32 97.2333 184.067 97.2462 183.899L91.7039 192.611H89.5843V182.187H91.1983V188.547Z" fill="white"/>
<path d="M105.017 181.993C105.808 181.993 106.495 182.103 107.078 182.324C107.661 182.531 108.115 182.842 108.439 183.257C108.763 183.659 108.925 184.152 108.925 184.735C108.925 185.37 108.75 185.876 108.4 186.252C108.05 186.615 107.571 186.881 106.961 187.049V187.127C107.376 187.244 107.759 187.406 108.109 187.613C108.459 187.82 108.737 188.093 108.945 188.43C109.165 188.767 109.275 189.201 109.275 189.733C109.275 190.303 109.113 190.822 108.789 191.288C108.478 191.755 107.992 192.125 107.331 192.397C106.683 192.669 105.846 192.805 104.822 192.805C104.33 192.805 103.856 192.779 103.403 192.728C102.962 192.676 102.56 192.598 102.197 192.494C101.847 192.39 101.536 192.267 101.263 192.125V190.588C101.704 190.796 102.223 190.984 102.819 191.152C103.429 191.321 104.09 191.405 104.803 191.405C105.321 191.405 105.788 191.347 106.203 191.23C106.631 191.113 106.968 190.932 107.214 190.686C107.46 190.426 107.584 190.076 107.584 189.636C107.584 189.234 107.473 188.91 107.253 188.663C107.033 188.404 106.702 188.209 106.261 188.08C105.833 187.95 105.282 187.885 104.608 187.885H103.208V186.485H104.336C105.231 186.485 105.944 186.368 106.475 186.135C107.02 185.889 107.292 185.474 107.292 184.891C107.292 184.398 107.085 184.028 106.67 183.782C106.268 183.536 105.684 183.413 104.919 183.413C104.349 183.413 103.843 183.471 103.403 183.588C102.975 183.691 102.502 183.853 101.983 184.074L101.38 182.713C101.938 182.466 102.521 182.285 103.13 182.168C103.74 182.051 104.368 181.993 105.017 181.993Z" fill="white"/>
<path d="M120.384 184.813C120.384 185.461 120.19 185.967 119.801 186.33C119.412 186.693 118.913 186.939 118.303 187.069V187.146C118.952 187.237 119.515 187.47 119.995 187.846C120.475 188.209 120.715 188.78 120.715 189.558C120.715 189.999 120.63 190.407 120.462 190.783C120.306 191.159 120.06 191.483 119.723 191.755C119.386 192.027 118.952 192.241 118.42 192.397C117.888 192.54 117.247 192.611 116.495 192.611H112.003V182.187H116.475C117.214 182.187 117.875 182.272 118.459 182.44C119.055 182.596 119.522 182.868 119.859 183.257C120.209 183.633 120.384 184.152 120.384 184.813ZM118.945 189.558C118.945 188.961 118.718 188.534 118.264 188.274C117.811 188.015 117.143 187.885 116.261 187.885H113.714V191.23H116.3C117.156 191.23 117.811 191.107 118.264 190.861C118.718 190.601 118.945 190.167 118.945 189.558ZM118.653 185.027C118.653 184.534 118.472 184.177 118.109 183.957C117.759 183.724 117.182 183.607 116.378 183.607H113.714V186.466H116.067C116.91 186.466 117.551 186.349 117.992 186.116C118.433 185.882 118.653 185.519 118.653 185.027Z" fill="white"/>
<path d="M132.464 187.38C132.464 188.248 132.347 189.02 132.114 189.694C131.893 190.355 131.569 190.919 131.141 191.386C130.727 191.852 130.214 192.209 129.605 192.455C129.009 192.689 128.341 192.805 127.602 192.805C126.915 192.805 126.28 192.689 125.696 192.455C125.113 192.209 124.607 191.852 124.18 191.386C123.752 190.919 123.415 190.355 123.168 189.694C122.935 189.02 122.818 188.248 122.818 187.38C122.818 186.226 123.013 185.254 123.402 184.463C123.791 183.659 124.348 183.05 125.074 182.635C125.8 182.207 126.662 181.993 127.66 181.993C128.607 181.993 129.437 182.207 130.15 182.635C130.876 183.05 131.44 183.659 131.842 184.463C132.256 185.254 132.464 186.226 132.464 187.38ZM124.588 187.38C124.588 188.196 124.692 188.91 124.899 189.519C125.119 190.115 125.457 190.575 125.91 190.9C126.364 191.224 126.941 191.386 127.641 191.386C128.341 191.386 128.918 191.224 129.372 190.9C129.826 190.575 130.156 190.115 130.364 189.519C130.584 188.91 130.694 188.196 130.694 187.38C130.694 186.55 130.584 185.843 130.364 185.26C130.143 184.677 129.806 184.229 129.352 183.918C128.912 183.594 128.335 183.432 127.622 183.432C126.559 183.432 125.787 183.782 125.307 184.482C124.828 185.182 124.588 186.148 124.588 187.38Z" fill="white"/>
<path d="M143.11 182.187V191.172H144.627V196.228H142.974V192.611H135.72V196.228H134.087V191.172H134.923C135.52 190.342 136.012 189.441 136.401 188.469C136.803 187.483 137.101 186.459 137.296 185.396C137.503 184.32 137.613 183.251 137.626 182.187H143.11ZM139.143 183.529C139.091 184.411 138.955 185.325 138.735 186.271C138.514 187.205 138.229 188.099 137.879 188.955C137.542 189.811 137.147 190.55 136.693 191.172H141.457V183.529H139.143Z" fill="white"/>
<path d="M151.046 192.805C150.125 192.805 149.302 192.617 148.576 192.241C147.863 191.865 147.299 191.282 146.884 190.491C146.482 189.7 146.281 188.689 146.281 187.457C146.281 186.174 146.495 185.13 146.923 184.327C147.351 183.523 147.928 182.933 148.654 182.557C149.393 182.181 150.229 181.993 151.162 181.993C151.694 181.993 152.206 182.051 152.698 182.168C153.191 182.272 153.593 182.401 153.904 182.557L153.379 183.977C153.068 183.86 152.705 183.75 152.29 183.646C151.875 183.542 151.486 183.49 151.123 183.49C150.423 183.49 149.846 183.639 149.393 183.938C148.939 184.236 148.602 184.677 148.381 185.26C148.161 185.843 148.051 186.569 148.051 187.438C148.051 188.268 148.161 188.974 148.381 189.558C148.602 190.141 148.932 190.582 149.373 190.88C149.814 191.178 150.365 191.327 151.026 191.327C151.596 191.327 152.096 191.269 152.523 191.152C152.964 191.036 153.366 190.893 153.729 190.725V192.241C153.379 192.423 152.99 192.559 152.562 192.65C152.147 192.753 151.642 192.805 151.046 192.805Z" fill="white"/>
<path d="M163.598 183.627H160.195V192.611H158.503V183.627H155.138V182.187H163.598V183.627Z" fill="white"/>
<path d="M174.227 184.813C174.227 185.461 174.033 185.967 173.644 186.33C173.255 186.693 172.756 186.939 172.146 187.069V187.146C172.794 187.237 173.358 187.47 173.838 187.846C174.318 188.209 174.558 188.78 174.558 189.558C174.558 189.999 174.473 190.407 174.305 190.783C174.149 191.159 173.903 191.483 173.566 191.755C173.229 192.027 172.794 192.241 172.263 192.397C171.731 192.54 171.09 192.611 170.338 192.611H165.845V182.187H170.318C171.057 182.187 171.718 182.272 172.302 182.44C172.898 182.596 173.365 182.868 173.702 183.257C174.052 183.633 174.227 184.152 174.227 184.813ZM172.788 189.558C172.788 188.961 172.561 188.534 172.107 188.274C171.654 188.015 170.986 187.885 170.104 187.885H167.557V191.23H170.143C170.999 191.23 171.654 191.107 172.107 190.861C172.561 190.601 172.788 190.167 172.788 189.558ZM172.496 185.027C172.496 184.534 172.315 184.177 171.952 183.957C171.602 183.724 171.025 183.607 170.221 183.607H167.557V186.466H169.91C170.753 186.466 171.394 186.349 171.835 186.116C172.276 185.882 172.496 185.519 172.496 185.027Z" fill="white"/>
<path d="M186.307 187.38C186.307 188.248 186.19 189.02 185.957 189.694C185.736 190.355 185.412 190.919 184.984 191.386C184.569 191.852 184.057 192.209 183.448 192.455C182.852 192.689 182.184 192.805 181.445 192.805C180.758 192.805 180.123 192.689 179.539 192.455C178.956 192.209 178.45 191.852 178.022 191.386C177.595 190.919 177.258 190.355 177.011 189.694C176.778 189.02 176.661 188.248 176.661 187.38C176.661 186.226 176.856 185.254 177.245 184.463C177.633 183.659 178.191 183.05 178.917 182.635C179.643 182.207 180.505 181.993 181.503 181.993C182.45 181.993 183.279 182.207 183.993 182.635C184.719 183.05 185.282 183.659 185.684 184.463C186.099 185.254 186.307 186.226 186.307 187.38ZM178.431 187.38C178.431 188.196 178.535 188.91 178.742 189.519C178.962 190.115 179.299 190.575 179.753 190.9C180.207 191.224 180.784 191.386 181.484 191.386C182.184 191.386 182.761 191.224 183.215 190.9C183.668 190.575 183.999 190.115 184.206 189.519C184.427 188.91 184.537 188.196 184.537 187.38C184.537 186.55 184.427 185.843 184.206 185.26C183.986 184.677 183.649 184.229 183.195 183.918C182.754 183.594 182.178 183.432 181.464 183.432C180.401 183.432 179.63 183.782 179.15 184.482C178.671 185.182 178.431 186.148 178.431 187.38Z" fill="white"/>
<path d="M199.038 181.993C200.322 181.993 201.353 182.44 202.13 183.335C202.921 184.229 203.317 185.578 203.317 187.38C203.317 188.559 203.135 189.558 202.772 190.374C202.422 191.178 201.923 191.788 201.275 192.202C200.64 192.604 199.888 192.805 199.019 192.805C198.487 192.805 198.014 192.734 197.599 192.591C197.185 192.449 196.828 192.267 196.53 192.047C196.245 191.814 195.998 191.561 195.791 191.288H195.674C195.7 191.509 195.726 191.788 195.752 192.125C195.778 192.462 195.791 192.753 195.791 193V197.278H194.08V182.187H195.48L195.713 183.607H195.791C195.998 183.309 196.245 183.037 196.53 182.79C196.828 182.544 197.178 182.35 197.58 182.207C197.995 182.064 198.481 181.993 199.038 181.993ZM198.727 183.432C198.027 183.432 197.463 183.568 197.035 183.84C196.608 184.1 196.296 184.495 196.102 185.027C195.908 185.558 195.804 186.232 195.791 187.049V187.38C195.791 188.235 195.882 188.961 196.063 189.558C196.245 190.154 196.549 190.608 196.977 190.919C197.418 191.23 198.014 191.386 198.766 191.386C199.401 191.386 199.92 191.211 200.322 190.861C200.737 190.511 201.041 190.037 201.236 189.441C201.443 188.832 201.547 188.138 201.547 187.36C201.547 186.168 201.314 185.215 200.847 184.502C200.393 183.789 199.687 183.432 198.727 183.432Z" fill="white"/>
<path d="M210.264 181.993C211.158 181.993 211.923 182.187 212.558 182.576C213.207 182.965 213.699 183.516 214.036 184.229C214.386 184.929 214.561 185.753 214.561 186.699V187.73H207.425C207.45 188.91 207.749 189.811 208.319 190.433C208.902 191.042 209.713 191.347 210.75 191.347C211.411 191.347 211.994 191.288 212.5 191.172C213.019 191.042 213.55 190.861 214.095 190.627V192.125C213.563 192.358 213.038 192.527 212.52 192.63C212.001 192.747 211.385 192.805 210.672 192.805C209.687 192.805 208.812 192.604 208.047 192.202C207.295 191.801 206.705 191.204 206.277 190.413C205.862 189.61 205.655 188.631 205.655 187.477C205.655 186.336 205.843 185.357 206.219 184.54C206.608 183.724 207.146 183.095 207.833 182.654C208.533 182.213 209.343 181.993 210.264 181.993ZM210.244 183.393C209.428 183.393 208.779 183.659 208.3 184.19C207.833 184.709 207.554 185.435 207.463 186.368H212.772C212.772 185.772 212.682 185.254 212.5 184.813C212.319 184.372 212.04 184.028 211.664 183.782C211.301 183.523 210.828 183.393 210.244 183.393Z" fill="white"/>
<path d="M223.574 182.187H225.441L220.988 187.205L225.81 192.611H223.827L219.121 187.321V192.611H217.409V182.187H219.121V187.244L223.574 182.187Z" fill="white"/>
<path d="M235.831 192.611H234.1V183.607H231.028C230.898 185.254 230.736 186.66 230.542 187.827C230.347 188.981 230.101 189.921 229.803 190.647C229.505 191.373 229.148 191.904 228.733 192.241C228.318 192.578 227.832 192.747 227.275 192.747C227.106 192.747 226.938 192.734 226.769 192.708C226.613 192.695 226.484 192.663 226.38 192.611V191.327C226.458 191.353 226.542 191.373 226.633 191.386C226.724 191.399 226.814 191.405 226.905 191.405C227.19 191.405 227.45 191.288 227.683 191.055C227.916 190.822 228.124 190.465 228.305 189.986C228.5 189.506 228.675 188.903 228.83 188.177C228.986 187.438 229.122 186.569 229.239 185.571C229.355 184.573 229.459 183.445 229.55 182.187H235.831V192.611Z" fill="white"/>
<path d="M243.282 182.012C244.552 182.012 245.492 182.291 246.101 182.849C246.711 183.406 247.015 184.294 247.015 185.513V192.611H245.771L245.44 191.133H245.362C245.064 191.509 244.753 191.827 244.429 192.086C244.118 192.332 243.755 192.514 243.34 192.63C242.938 192.747 242.446 192.805 241.862 192.805C241.24 192.805 240.676 192.695 240.17 192.475C239.678 192.254 239.289 191.917 239.003 191.464C238.718 190.997 238.576 190.413 238.576 189.713C238.576 188.676 238.984 187.879 239.801 187.321C240.617 186.751 241.875 186.44 243.573 186.388L245.343 186.33V185.707C245.343 184.839 245.155 184.236 244.779 183.899C244.403 183.562 243.872 183.393 243.184 183.393C242.64 183.393 242.121 183.477 241.629 183.646C241.136 183.802 240.676 183.983 240.248 184.19L239.723 182.907C240.177 182.661 240.715 182.453 241.337 182.285C241.959 182.103 242.608 182.012 243.282 182.012ZM243.787 187.574C242.491 187.626 241.59 187.833 241.084 188.196C240.592 188.559 240.345 189.072 240.345 189.733C240.345 190.316 240.52 190.744 240.87 191.016C241.233 191.288 241.694 191.425 242.251 191.425C243.133 191.425 243.865 191.185 244.449 190.705C245.032 190.212 245.324 189.46 245.324 188.449V187.516L243.787 187.574Z" fill="white"/>
<path d="M261.611 182.187V192.611H260.075V185.96C260.075 185.688 260.081 185.403 260.094 185.104C260.12 184.806 260.146 184.515 260.172 184.229H260.114L256.71 192.611H255.271L251.966 184.229H251.907C251.933 184.515 251.946 184.806 251.946 185.104C251.959 185.403 251.966 185.707 251.966 186.018V192.611H250.429V182.187H252.704L255.991 190.569L259.336 182.187H261.611Z" fill="white"/>
<path d="M265.133 192.611V182.187H266.844V186.466H269.547C270.455 186.466 271.2 186.576 271.783 186.796C272.367 187.017 272.801 187.347 273.086 187.788C273.372 188.216 273.514 188.76 273.514 189.422C273.514 190.07 273.372 190.634 273.086 191.113C272.814 191.593 272.38 191.963 271.783 192.222C271.2 192.481 270.429 192.611 269.469 192.611H265.133ZM269.314 191.23C270.053 191.23 270.656 191.107 271.122 190.861C271.589 190.601 271.822 190.154 271.822 189.519C271.822 188.884 271.608 188.456 271.181 188.235C270.753 188.002 270.137 187.885 269.333 187.885H266.844V191.23H269.314ZM275.245 192.611V182.187H276.956V192.611H275.245Z" fill="white"/>
</svg>
