<svg width="60" height="58" viewBox="0 0 60 58" fill="none" xmlns="http://www.w3.org/2000/svg">
<path d="M32.6303 33.9019L35.2928 31.269C35.2337 27.5415 37.3341 22.9265 41.2095 19.0807C46.9782 13.2823 54.4924 11.4186 57.9537 14.8798C61.4149 18.3411 59.5512 25.8553 53.7528 31.624C49.907 35.4994 45.292 37.5998 41.5645 37.5407L38.9316 40.2032C37.8962 41.1794 36.417 41.3273 35.2337 40.5878C32.7487 41.4753 30.5003 42.5698 29.1987 44.6998C27.6307 47.3032 27.6307 51.504 25.9741 54.0186C24.3174 56.5628 21.0041 57.4207 17.5132 57.4207C14.0224 57.4207 9.79199 57.1248 6.68574 52.6873L14.0224 53.9298C15.7087 54.1665 20.1462 52.3619 21.7732 49.8473C23.4299 47.3032 23.4299 43.1319 24.9978 40.499C26.3882 38.1915 29.0212 37.0969 31.7724 36.1503C31.7428 35.3515 31.9795 34.5232 32.6303 33.9019ZM15.7087 0.916504C17.6511 0.916504 19.5746 1.2991 21.3692 2.04245C23.1638 2.7858 24.7944 3.87535 26.1679 5.24888C27.5415 6.62242 28.631 8.25304 29.3744 10.0476C30.1177 11.8423 30.5003 13.7657 30.5003 15.7082C30.5003 17.6506 30.1177 19.5741 29.3744 21.3687C28.631 23.1633 27.5415 24.7939 26.1679 26.1675C24.7944 27.541 23.1638 28.6305 21.3692 29.3739C19.5746 30.1172 17.6511 30.4998 15.7087 30.4998C11.7857 30.4998 8.02335 28.9414 5.24937 26.1675C2.4754 23.3935 0.916992 19.6312 0.916992 15.7082C0.916992 11.7852 2.4754 8.02286 5.24937 5.24888C8.02335 2.47491 11.7857 0.916504 15.7087 0.916504ZM15.7087 6.83317C13.3549 6.83317 11.0975 7.76821 9.43309 9.4326C7.7687 11.097 6.83366 13.3544 6.83366 15.7082C6.83366 18.062 7.7687 20.3194 9.43309 21.9837C11.0975 23.6481 13.3549 24.5832 15.7087 24.5832C18.0625 24.5832 20.3198 23.6481 21.9842 21.9837C23.6486 20.3194 24.5837 18.062 24.5837 15.7082C24.5837 13.3544 23.6486 11.097 21.9842 9.4326C20.3198 7.76821 18.0625 6.83317 15.7087 6.83317Z" fill="white"/>
</svg>
